<svg xmlns="http://www.w3.org/2000/svg" viewBox="0 0 52 52"><title>coding-browser</title><g id="coding-browser"><g id="coding-browser-2" data-name="coding-browser"><g id="browser"><path d="M4,50H48a2,2,0,0,0,2-2V12H2V48A2,2,0,0,0,4,50Z" fill="#40495a"/><path d="M48,2H4A2,2,0,0,0,2,4v8H50V4A2,2,0,0,0,48,2Z" fill="#eae8e8"/><rect x="6" y="6" width="6" height="2" fill="#d7d4d4"/><rect x="16" y="6" width="30" height="2" fill="#d7d4d4"/></g><g id="coding-browser-3" data-name="coding-browser"><rect x="6" y="42" width="4" height="2" fill="#748191"/><rect x="6" y="34" width="4" height="2" fill="#748191"/><rect x="6" y="38" width="4" height="2" fill="#748191"/><rect x="6" y="26" width="4" height="2" fill="#748191"/><rect x="6" y="30" width="4" height="2" fill="#748191"/><rect x="6" y="18" width="4" height="2" fill="#748191"/><rect x="6" y="22" width="4" height="2" fill="#748191"/><rect x="13" y="30" width="3" height="2" fill="#ffcd02"/><rect x="18" y="30" width="10" height="2" fill="#2ecc71"/><rect x="30" y="30" width="4" height="2" fill="#ff6e40"/><rect x="36" y="30" width="6" height="2" fill="#26c6da"/><rect x="13" y="26" width="6" height="2" fill="#2ecc71"/><rect x="21" y="26" width="10" height="2" fill="#26c6da"/><rect x="33" y="26" width="6" height="2" fill="#ff6e40"/><rect x="13" y="34" width="6" height="2" fill="#ff6e40"/><rect x="21" y="34" width="3" height="2" fill="#26c6da"/><rect x="26" y="34" width="4" height="2" fill="#ffcd02"/><rect x="32" y="34" width="8" height="2" fill="#2ecc71"/><rect x="42" y="34" width="2" height="2" fill="#ffcd02"/><rect x="13" y="22" width="2" height="2" fill="#26c6da"/><rect x="17" y="22" width="16" height="2" fill="#ffcd02"/><rect x="35" y="22" width="9" height="2" fill="#2ecc71"/><rect x="13" y="18" width="4" height="2" fill="#ff6e40"/><rect x="19" y="18" width="8" height="2" fill="#ff6e40"/><rect x="29" y="18" width="3" height="2" fill="#ffcd02"/><rect x="34" y="18" width="12" height="2" fill="#26c6da"/><rect x="13" y="38" width="15" height="2" fill="#ffcd02"/><rect x="30" y="38" width="8" height="2" fill="#26c6da"/><rect x="40" y="38" width="6" height="2" fill="#ff6e40"/><rect x="13" y="42" width="4" height="2" fill="#26c6da"/><rect x="19" y="42" width="6" height="2" fill="#2ecc71"/><rect x="27" y="42" width="9" height="2" fill="#ff6e40"/><rect x="38" y="42" width="4" height="2" fill="#ffcd02"/></g></g></g></svg>