<?xml version="1.0" encoding="UTF-8" standalone="no"?>
<!-- Uploaded to: SVG Repo, www.svgrepo.com, Generator: SVG Repo Mixer Tools -->

<svg
   width="800"
   height="709"
   viewBox="0 0 512 453.76"
   aria-hidden="true"
   role="img"
   class="iconify iconify--fxemoji"
   preserveAspectRatio="xMidYMid"
   version="1.1"
   id="svg3"
   sodipodi:docname="document.svg"
   inkscape:version="1.5-dev (0b4d3151ad, 2024-06-08)"
   xmlns:inkscape="http://www.inkscape.org/namespaces/inkscape"
   xmlns:sodipodi="http://sodipodi.sourceforge.net/DTD/sodipodi-0.dtd"
   xmlns="http://www.w3.org/2000/svg"
   xmlns:svg="http://www.w3.org/2000/svg">
  <defs
     id="defs3" />
  <sodipodi:namedview
     id="namedview3"
     pagecolor="#50505000"
     bordercolor="#eeeeeeff"
     borderopacity="1"
     inkscape:showpageshadow="0"
     inkscape:pageopacity="0"
     inkscape:pagecheckerboard="0"
     inkscape:deskcolor="#505050ff"
     inkscape:zoom="1.0075"
     inkscape:cx="399.50372"
     inkscape:cy="400"
     inkscape:window-width="1920"
     inkscape:window-height="1022"
     inkscape:window-x="0"
     inkscape:window-y="0"
     inkscape:window-maximized="1"
     inkscape:current-layer="svg3" />
  <path
     fill="#f9e7c0"
     d="M 436.29653,443.39454 H 86.733529 a 8.182,6.9942903 0 0 1 -8.182,-6.99429 V 12.711412 a 8.182,6.9942903 0 0 1 8.182,-6.9942904 H 287.51953 l 156.96,134.1754784 v 296.50765 a 8.183,6.9951452 0 0 1 -8.183,6.99429 z"
     id="path1"
     style="stroke-width:0.924575" />
  <path
     fill="#EAC083"
     d="m 288.15477,7.6228288 156.96,134.1754812 h -123.598 c -18.426,0 -33.363,-12.76872 -33.363,-28.51998 V 7.6228288 Z"
     id="path2"
     style="fill:#ebd0a7;fill-opacity:1;stroke-width:0.924575" />
  <path
     fill="#597B91"
     d="m 233.80753,84.705074 h -108.625 c -6.147,0 -11.13,-4.259662 -11.13,-9.514355 0,-5.254694 4.983,-9.514355 11.13,-9.514355 h 108.625 c 6.147,0 11.13,4.259661 11.13,9.514355 0,5.254693 -4.983,9.514355 -11.13,9.514355 z m 11.13,52.763206 c 0,-5.25469 -4.983,-9.51435 -11.13,-9.51435 h -108.625 c -6.147,0 -11.13,4.25966 -11.13,9.51435 0,5.25469 4.983,9.51436 11.13,9.51436 h 108.625 c 6.147,0 11.13,-4.25967 11.13,-9.51436 z m 0,62.27842 c 0,-5.25469 -4.983,-9.51435 -11.13,-9.51435 h -108.625 c -6.147,0 -11.13,4.25966 -11.13,9.51435 0,5.25469 4.983,9.51436 11.13,9.51436 h 108.625 c 6.147,-8.6e-4 11.13,-4.25967 11.13,-9.51436 z m 94.038,62.27757 c 0,-5.25384 -4.983,-9.51436 -11.13,-9.51436 h -202.663 c -6.147,0 -11.13,4.25966 -11.13,9.51436 0,5.25469 4.983,9.51435 11.13,9.51435 h 202.663 c 6.147,0 11.13,-4.25966 11.13,-9.51435 z m 37.493,-62.27757 c 0,-5.25469 -4.983,-9.51435 -11.13,-9.51435 h -74.985 c -6.146,0 -11.13,4.25966 -11.13,9.51435 0,5.25469 4.983,9.51436 11.13,9.51436 h 74.985 c 6.147,-8.6e-4 11.13,-4.25967 11.13,-9.51436 z m -77.819,124.55598 c 0,-5.25383 -4.983,-9.51435 -11.13,-9.51435 h -162.337 c -6.147,0 -11.13,4.25966 -11.13,9.51435 0,5.2547 4.983,9.51436 11.13,9.51436 h 162.337 c 6.147,-8.6e-4 11.13,-4.26052 11.13,-9.51436 z m 66.21,62.27757 c 0,-5.25384 -4.983,-9.51436 -11.13,-9.51436 h -228.547 c -6.147,0 -11.13,4.25967 -11.13,9.51436 0,5.25469 4.983,9.51435 11.13,9.51435 h 228.547 c 6.146,0 11.13,-4.25966 11.13,-9.51435 z"
     id="path3"
     style="fill:#b3a284;fill-opacity:1;stroke-width:0.924575" />
</svg>
