<?xml version="1.0" encoding="UTF-8" standalone="no"?>
<!-- Uploaded to: SVG Repo, www.svgrepo.com, Generator: SVG Repo Mixer Tools -->

<svg
   width="800px"
   height="800px"
   viewBox="0 0 512 512"
   aria-hidden="true"
   role="img"
   class="iconify iconify--fxemoji"
   preserveAspectRatio="xMidYMid meet"
   version="1.1"
   id="svg3"
   sodipodi:docname="document.svg"
   inkscape:version="1.5-dev (0b4d3151ad, 2024-06-08)"
   xmlns:inkscape="http://www.inkscape.org/namespaces/inkscape"
   xmlns:sodipodi="http://sodipodi.sourceforge.net/DTD/sodipodi-0.dtd"
   xmlns="http://www.w3.org/2000/svg"
   xmlns:svg="http://www.w3.org/2000/svg">
  <defs
     id="defs3" />
  <sodipodi:namedview
     id="namedview3"
     pagecolor="#50505000"
     bordercolor="#eeeeeeff"
     borderopacity="1"
     inkscape:showpageshadow="0"
     inkscape:pageopacity="0"
     inkscape:pagecheckerboard="0"
     inkscape:deskcolor="#505050ff"
     inkscape:zoom="1.0075"
     inkscape:cx="399.50372"
     inkscape:cy="400"
     inkscape:window-width="1920"
     inkscape:window-height="1022"
     inkscape:window-x="0"
     inkscape:window-y="0"
     inkscape:window-maximized="1"
     inkscape:current-layer="svg3" />
  <path
     fill="#F9E7C0"
     d="M437.567 512H88.004a8.182 8.182 0 0 1-8.182-8.182V8.182A8.182 8.182 0 0 1 88.004 0H288.79l156.96 156.96v346.858a8.183 8.183 0 0 1-8.183 8.182z"
     id="path1" />
  <path
     fill="#EAC083"
     d="M288.79 0l156.96 156.96H322.152c-18.426 0-33.363-14.937-33.363-33.363V0z"
     id="path2"
     style="fill:#ebd0a7;fill-opacity:1" />
  <path
     fill="#597B91"
     d="M235.078 92.401H126.453c-6.147 0-11.13-4.983-11.13-11.13s4.983-11.13 11.13-11.13h108.625c6.147 0 11.13 4.983 11.13 11.13s-4.983 11.13-11.13 11.13zm11.13 61.723c0-6.147-4.983-11.13-11.13-11.13H126.453c-6.147 0-11.13 4.983-11.13 11.13s4.983 11.13 11.13 11.13h108.625c6.147 0 11.13-4.983 11.13-11.13zm0 72.854c0-6.147-4.983-11.13-11.13-11.13H126.453c-6.147 0-11.13 4.983-11.13 11.13s4.983 11.13 11.13 11.13h108.625c6.147-.001 11.13-4.983 11.13-11.13zm94.038 72.853c0-6.146-4.983-11.13-11.13-11.13H126.453c-6.147 0-11.13 4.983-11.13 11.13s4.983 11.13 11.13 11.13h202.663c6.147 0 11.13-4.983 11.13-11.13zm37.493-72.853c0-6.147-4.983-11.13-11.13-11.13h-74.985c-6.146 0-11.13 4.983-11.13 11.13s4.983 11.13 11.13 11.13h74.985c6.147-.001 11.13-4.983 11.13-11.13zM299.92 372.685c0-6.146-4.983-11.13-11.13-11.13H126.453c-6.147 0-11.13 4.983-11.13 11.13s4.983 11.13 11.13 11.13H288.79c6.147-.001 11.13-4.984 11.13-11.13zm66.21 72.853c0-6.146-4.983-11.13-11.13-11.13H126.453c-6.147 0-11.13 4.983-11.13 11.13s4.983 11.13 11.13 11.13H355c6.146 0 11.13-4.983 11.13-11.13z"
     id="path3"
     style="fill:#b3a284;fill-opacity:1" />
</svg>
