<?xml version="1.0" encoding="UTF-8" standalone="no"?>
<!-- Uploaded to: SVG Repo, www.svgrepo.com, Generator: SVG Repo Mixer Tools -->

<svg
   width="800px"
   height="800px"
   viewBox="0 0 24 24"
   version="1.1"
   id="svg4"
   sodipodi:docname="folder7.svg"
   inkscape:version="1.5-dev (0b4d3151ad, 2024-06-08)"
   xmlns:inkscape="http://www.inkscape.org/namespaces/inkscape"
   xmlns:sodipodi="http://sodipodi.sourceforge.net/DTD/sodipodi-0.dtd"
   xmlns:xlink="http://www.w3.org/1999/xlink"
   xmlns="http://www.w3.org/2000/svg"
   xmlns:svg="http://www.w3.org/2000/svg">
  <defs
     id="defs4">
    <linearGradient
       id="linearGradient5"
       inkscape:collect="always">
      <stop
         style="stop-color:#c17897;stop-opacity:1;"
         offset="0"
         id="stop5" />
      <stop
         style="stop-color:#d4a6bf;stop-opacity:1;"
         offset="0.5"
         id="stop7" />
      <stop
         style="stop-color:#e67fb1;stop-opacity:1;"
         offset="1"
         id="stop6" />
    </linearGradient>
    <linearGradient
       inkscape:collect="always"
       xlink:href="#linearGradient5"
       id="linearGradient6"
       x1="12.188484"
       y1="1029.9016"
       x2="11.811511"
       y2="1053.8984"
       gradientUnits="userSpaceOnUse" />
  </defs>
  <sodipodi:namedview
     id="namedview4"
     pagecolor="#50505000"
     bordercolor="#eeeeeeff"
     borderopacity="1"
     inkscape:showpageshadow="0"
     inkscape:pageopacity="0"
     inkscape:pagecheckerboard="0"
     inkscape:deskcolor="#505050ff"
     inkscape:zoom="1.0075"
     inkscape:cx="399.50372"
     inkscape:cy="375.1861"
     inkscape:window-width="1920"
     inkscape:window-height="1022"
     inkscape:window-x="0"
     inkscape:window-y="0"
     inkscape:window-maximized="1"
     inkscape:current-layer="g4" />
  <g
     transform="matrix(0.99751861,0,0,0.95533499,0.05955335,-981.43921)"
     id="g4"
     style="stroke-width:1.02437109;stroke-dasharray:none">
    <path
       d="m 3,1029.4 c -1.1046,0 -2,0.9 -2,2 v 14 c 0,1.1 0.8954,2 2,2 h 11 5 2 c 1.105,0 2,-0.9 2,-2 v -9 -3 c 0,-1.1 -0.895,-2 -2,-2 h -2 -5 -1 l -3,-2 z"
       fill="#2980b9"
       id="path2"
       style="stroke-width:1.02437109;stroke-dasharray:none;fill:#da8fae;fill-opacity:1" />
    <path
       d="m 23,1042.4 v -8 c 0,-1.1 -0.895,-2 -2,-2 H 10 5 3 c -1.1046,0 -2,0.9 -2,2 v 8 z"
       fill="#bdc3c7"
       id="path3"
       style="stroke-width:1.02437109;stroke-dasharray:none" />
    <path
       d="m 2,1033.4 c -1.1046,0 -2,0.9 -2,2 v 6 1 6 c 0,1.1 0.89543,2 2,2 h 20 c 1.105,0 2,-0.9 2,-2 v -6 -1 -6 c 0,-1.1 -0.895,-2 -2,-2 z"
       fill="#3498db"
       id="path4"
       style="fill:url(#linearGradient6);stroke-width:1.02437;stroke-dasharray:none"
       sodipodi:nodetypes="ssccssssccsss" />
  </g>
</svg>
