<?xml version="1.0" encoding="iso-8859-1"?>
<!-- Uploaded to: SVG Repo, www.svgrepo.com, Generator: SVG Repo Mixer Tools -->
<svg xmlns="http://www.w3.org/2000/svg" xmlns:xlink="http://www.w3.org/1999/xlink" version="1.1" id="Layer_1"  viewBox="0 0 266 266" xml:space="preserve" width="512" height="512">
<g>
	<path style="fill:#F8B242;" d="M243.113,72.443H22.887C10.247,72.443,0,62.196,0,49.556v-4.127   c0-12.64,10.247-22.887,22.887-22.887h220.226c12.64,0,22.887,10.247,22.887,22.887v4.127   C266,62.196,255.753,72.443,243.113,72.443z"/>
	<g>
		<path style="fill:#F8B242;" d="M243.113,158.131H22.887C10.247,158.131,0,147.884,0,135.244v-4.127    c0-12.64,10.247-22.887,22.887-22.887h220.226c12.64,0,22.887,10.247,22.887,22.887v4.127    C266,147.884,255.753,158.131,243.113,158.131z"/>
		<path style="fill:#F8B242;" d="M243.113,243.82H22.887C10.247,243.82,0,233.573,0,220.932v-4.127    c0-12.64,10.247-22.887,22.887-22.887h220.226c12.64,0,22.887,10.247,22.887,22.887v4.127    C266,233.573,255.753,243.82,243.113,243.82z"/>
	</g>
	<path style="fill:#D09838;" d="M132,22.541H22.887C10.247,22.541,0,32.788,0,45.429v4.127c0,12.64,10.247,22.887,22.887,22.887H132   V22.541z"/>
	<g>
		<path style="fill:#D09838;" d="M132,108.23H22.887C10.247,108.23,0,118.477,0,131.117v4.127c0,12.64,10.247,22.887,22.887,22.887    H132V108.23z"/>
		<path style="fill:#D09838;" d="M132,193.918H22.887C10.247,193.918,0,204.165,0,216.805v4.127    c0,12.64,10.247,22.887,22.887,22.887H132V193.918z"/>
	</g>
	<path style="fill:#E45527;" d="M243.113,22.18h-42.816C187.656,22.18,177,32.788,177,45.429v4.127   c0,12.64,10.656,22.625,23.297,22.625h42.816c12.64,0,22.887-9.984,22.887-22.625v-4.127C266,32.788,255.753,22.18,243.113,22.18z"/>
</g>















</svg>